<?xml version="1.0" encoding="utf-8"?>
<!-- Generator: Adobe Illustrator 16.0.3, SVG Export Plug-In . SVG Version: 6.00 Build 0)  -->
<!DOCTYPE svg PUBLIC "-//W3C//DTD SVG 1.1//EN" "http://www.w3.org/Graphics/SVG/1.1/DTD/svg11.dtd">
<svg version="1.1"
	 id="svg1" inkscape:export-ydpi="96" inkscape:export-xdpi="96" inkscape:version="1.3.2 (091e20e, 2023-11-25, custom)" sodipodi:docname="mfcodelogo-vectorizado-logoinsta-dos-colores.svg" inkscape:export-filename="mfcodelogo-vectorizado-logoinsta-dos-colores.png" xmlns:inkscape="http://www.inkscape.org/namespaces/inkscape" xmlns:sodipodi="http://sodipodi.sourceforge.net/DTD/sodipodi-0.dtd" xmlns:svg="http://www.w3.org/2000/svg"
	 xmlns="http://www.w3.org/2000/svg" xmlns:xlink="http://www.w3.org/1999/xlink" x="0px" y="0px" width="1024px" height="691px"
	 viewBox="0 0 1024 691" enable-background="new 0 0 1024 691" xml:space="preserve">
<sodipodi:namedview  id="namedview1" inkscape:current-layer="g1" inkscape:window-y="-8" inkscape:window-x="1358" inkscape:window-height="1017" inkscape:window-width="1920" inkscape:deskcolor="#d1d1d1" inkscape:pageopacity="0.0" inkscape:showpageshadow="2" inkscape:window-maximized="1" inkscape:pagecheckerboard="0" inkscape:cx="545.5" inkscape:zoom="1" showgrid="false" borderopacity="0.25" bordercolor="#000000" pagecolor="#ffffff" inkscape:cy="466.5">
	</sodipodi:namedview>
<g id="g1" inkscape:groupmode="layer" inkscape:label="Image">
	<g id="g1_1_" inkscape:groupmode="layer" inkscape:label="Image">
		<path id="path179_1_" d="M819.956,200.28c0.777-1.453,1.223-8.292,1.285-19.75l0.097-17.528l-15.25-0.276
			c-11.863-0.215-15.25,0.008-15.25,1.003c0,0.704,1.625,3.528,3.611,6.276c6.319,8.744,12.211,18.195,15.866,25.453
			c2.944,5.846,3.964,7.044,5.999,7.044C817.825,202.502,819.224,201.649,819.956,200.28L819.956,200.28z"/>
		<path id="path178_1_" d="M204.057,203.252c0.881-0.688,3.598-5.075,6.037-9.75s7.43-12.948,11.09-18.383
			c3.659-5.436,6.654-10.273,6.654-10.75s-6.733-0.867-14.963-0.867h-14.962l-0.288,9.25c-0.158,5.087-0.147,14.06,0.023,19.938
			c0.317,10.877,0.318,10.88,4.248,11.695C202.204,204.45,203.176,203.94,204.057,203.252L204.057,203.252z"/>
		<path id="path177_1_" d="M595.975,196.953c0.686-9.725,1.968-16.975,4.908-27.75c1.415-5.187,1.563-6.913,0.627-7.272
			c-0.676-0.259-10.216-0.349-21.2-0.2l-19.972,0.272l-0.271,20.974c-0.149,11.536-0.047,21.559,0.228,22.274
			c0.389,1.011,4.326,1.239,17.771,1.026l17.272-0.274L595.975,196.953z"/>
		<path id="path176_1_" d="M459.838,184.002v-22.5h-20.532c-16.938,0-20.628,0.252-21.083,1.438
			c-0.304,0.792,0.402,4.954,1.569,9.25c2.362,8.702,5.325,28.124,4.585,30.062c-0.262,0.688-0.218,1.925,0.099,2.75
			c0.481,1.254,3.431,1.5,17.969,1.5h17.394V184.002z"/>
		<path id="path175_1_" d="M531.607,184.146l-0.269-22.143l-21.77-0.27l-21.77-0.27l0.27,22.27l0.27,22.27l18,0.5
			c9.899,0.275,19.695,0.339,21.769,0.143l3.769-0.357L531.607,184.146z"/>
		<path id="path174_1_" d="M598.44,281.942c0.285-1.133,0.045-10.809-0.535-21.5c-0.579-10.692-1.057-20.002-1.061-20.689
			c-0.005-0.955-4.377-1.25-18.506-1.25h-18.5v22.333c0,12.283,0.234,22.568,0.522,22.856c0.287,0.287,8.855,0.475,19.04,0.417
			C597.222,284.006,597.939,283.925,598.44,281.942z"/>
		<path id="path173_1_" d="M531.338,261.502v-22.5l-20.93-0.271c-12.542-0.162-21.317,0.117-21.897,0.697
			c-0.978,0.978-1.01,42.72-0.033,44.3c0.276,0.447,10.032,0.692,21.681,0.543l21.18-0.27V261.502z"/>
		<path id="path172_1_" d="M459.509,283.164c0.696-0.696,0.622-42.378-0.077-43.51c-0.925-1.496-33.887-1.601-36.66-0.117
			c-1.819,0.974-1.935,2.3-1.935,22.333c0,11.714,0.338,21.655,0.75,22.092C422.289,284.706,458.735,283.938,459.509,283.164
			L459.509,283.164z"/>
		<path id="path171_1_" d="M529.128,346.752c0.422-11.086,1.095-16.449,2.71-21.592c1.183-3.763,1.981-7.01,1.775-7.216
			c-0.605-0.605-48.853-0.699-49.456-0.096c-0.303,0.303-0.021,2.037,0.629,3.853c2.213,6.191,4.049,19.285,4.05,28.884
			c0.001,5.271,0.302,9.884,0.668,10.25c0.367,0.367,9.306,0.667,19.864,0.667h19.197L529.128,346.752z"/>
		<path id="path170_1_" d="M171.838,396.417l0.5-25.585l3.183-3.622c3.499-3.983,3.924-5.827,5.339-23.207
			c0.493-6.05,1.193-12.728,1.557-14.84c0.607-3.524,0.33-4.182-3.377-8c-4.803-4.948-6.693-10.891-5.744-18.053
			c1.286-9.692,5.507-15.61,11.845-16.607c3.494-0.55,3.071,0.798,6.744-21.5c0.634-3.85,2.275-11.137,3.647-16.193
			s2.201-9.669,1.842-10.25c-0.359-0.582-2.331-1.057-4.383-1.057c-5.116,0-12.309-3.812-14.151-7.5
			c-1.275-2.554-1.445-9.019-1.144-43.5c0.379-43.208,0.483-44.145,5.493-49.104c3.459-3.425,8.538-3.879,43.435-3.889
			c23.872-0.006,27.605,0.203,29.848,1.672c2.006,1.314,2.958,1.433,4.38,0.544c5.782-3.611,26.509-13.474,32.017-15.235
			c22.626-7.237,46.826-7.211,67.47,0.072c7.814,2.756,20.802,9.523,26.227,13.664c5.045,3.851,5.375,3.889,10.818,1.254
			c4.123-1.996,5.547-2.018,114.735-1.75l110.56,0.271l2.395,2.25c2.78,2.612,4.065,2.8,5.698,0.832
			c1.216-1.464,15.883-9.979,22.068-12.81c5.582-2.556,14.98-5.699,21.812-7.296c7.001-1.637,29.481-2.015,35.188-0.592
			c1.925,0.48,6.199,1.458,9.5,2.175c8.037,1.744,22.307,7.589,32.441,13.289c4.551,2.559,8.606,4.653,9.013,4.653
			c0.405,0,2.156-0.708,3.889-1.572c2.717-1.355,7.733-1.528,36.403-1.25c31.424,0.304,33.4,0.432,35.919,2.322
			c6.414,4.813,6.303,4.002,6.653,48.617c0.366,46.591,0.375,46.532-7.031,49.894c-2.358,1.07-5.989,1.956-8.069,1.968
			c-4.897,0.028-5.475,1.672-2.906,8.284c2.338,6.02,3.533,11.562,5.226,24.238c2.066,15.475,1.745,14.879,9.962,18.48
			c4.315,1.891,7.33,16.433,5.108,24.639c-1.352,4.994-4.505,9.201-7.851,10.473c-2.139,0.813-2.397,1.387-1.881,4.176
			c1.511,8.162,2.512,15.964,3.152,24.551c0.667,8.957,0.844,9.49,4.551,13.773c5.558,6.422,6.269,10.142,5.62,29.408
			c-0.565,16.812,0.094,25.193,2.143,27.242c0.859,0.859,1.916,0.411,4.24-1.799c1.703-1.619,3.674-4.068,4.379-5.443
			c1.932-3.764,2.626-296.558,0.719-302.868c-1.788-5.913-9.244-13.284-15.644-15.465c-4.528-1.543-29.563-1.667-336.226-1.667
			H177.816l-4.508,2.119c-5.049,2.373-10.719,7.621-13.273,12.285c-1.57,2.866-1.716,14.154-1.959,151.693
			c-0.226,127.212-0.057,149.086,1.171,152c2.024,4.806,7.451,10.066,10.007,9.701C171.289,422.009,171.35,421.401,171.838,396.417
			L171.838,396.417z"/>
		<path id="path169_1_" d="M547.042,436.965c0.483-0.484-2.938-9.117-9.698-24.463l-2.423-5.5H507.26H479.6l-0.935,2.5
			c-0.515,1.375-3.201,7.765-5.972,14.199s-4.745,12.172-4.388,12.75C468.978,437.539,545.967,438.041,547.042,436.965z"/>
		<path id="path168_1_" d="M241.082,387.473c-4.494-2.766-8.863-6.016-9.708-7.222c-3.256-4.649-1.043-15.061,3.888-18.291
			c2.068-1.355,3.347-1.506,6.339-0.746c5.315,1.35,17.196,9.319,17.872,11.99c0.816,3.224-2.4,11.961-5.85,15.889
			c-1.646,1.875-3.303,3.409-3.681,3.409C249.564,392.502,245.577,390.24,241.082,387.473L241.082,387.473z"/>
		<path id="path167_1_" d="M300.433,396.252c-2.703-4.194-4.737-10.546-4.415-13.789c0.3-3.028,0.824-3.432,8.434-6.487
			c12.621-5.069,22.758-8.398,26.483-8.699l3.403-0.274v10.451v10.45l-6.5,2.386c-3.575,1.313-9.875,3.699-14,5.305
			C304.834,399.098,302.347,399.22,300.433,396.252L300.433,396.252z"/>
		<path id="path166_1_" d="M270.079,414.177c-4.317-2.398-5.74-5.679-5.74-13.244c-0.001-8.703,2.923-14.025,8.266-15.039
			c7.852-1.491,12.527,3.57,12.527,13.563C285.132,411.849,278.161,418.666,270.079,414.177L270.079,414.177z"/>
		<path id="path165_1_" d="M223.859,428.542c-2.64-5.174-2.737-13.324-0.189-15.871c1.953-1.953,19.921-8.169,23.614-8.169
			c2.802,0,5.88,3.271,8.421,8.949c2.411,5.388,1.772,7.007-4.135,10.468c-4.15,2.432-21.566,8.583-24.302,8.583
			C226.504,432.502,224.969,430.72,223.859,428.542L223.859,428.542z"/>
		<path id="path164_1_" d="M308.082,441.569c-2.891-1.594-6.574-3.948-8.188-5.231c-1.612-1.284-4.967-3.836-7.454-5.671
			c-5.963-4.398-6.373-6.112-3.041-12.698c5.19-10.26,6.685-10.828,14.938-5.678c16.469,10.276,19.5,12.672,19.5,15.42
			c0,3.731-7.757,16.842-9.925,16.773C313.597,444.474,310.973,443.163,308.082,441.569L308.082,441.569z"/>
		<path id="path163_1_" d="M382.754,515.064c4.858-3.584,17.482-15.991,24.854-24.425c9.052-10.355,18.527-25.365,25.97-41.137
			c3.504-7.425,6.811-14.304,7.347-15.286c0.987-1.808,6.956-17.863,9.373-25.214c8.357-25.413,11.172-53.358,6.708-66.59
			c-3.548-10.515-10.151-15.402-18.66-13.813c-5.79,1.082-10.194,4.857-14.467,12.402c-2.863,5.056-3.859,7.361-10.589,24.5
			c-9.604,24.461-25.71,54-29.443,54c-1.497,0,0.535-39.222,4.014-77.5c0.55-6.05,1.443-17.525,1.984-25.5
			c1.18-17.362,2.709-38.75,4.041-56.5c3.512-46.789,3.378-53.78-1.336-70c-7.841-26.979-35.142-45.5-67.065-45.5
			c-36.079,0-73.896,26.08-91.355,63c-6.902,14.596-12.716,38.157-18.261,74c-1.148,7.425-2.492,15.525-2.986,18
			s-1.403,8.775-2.021,14c-0.618,5.225-1.537,11.975-2.044,15s-1.854,12.475-2.995,21c-1.142,8.525-2.486,18.425-2.99,22
			c-0.503,3.575-1.417,11.45-2.029,17.5c-0.613,6.05-2.155,18.65-3.428,28s-2.857,21.5-3.523,27s-1.839,14.05-2.607,19
			s-1.399,10.125-1.402,11.5l-0.005,2.5l20.751-0.353c11.579-0.197,25.17,0.148,30.751,0.783c20.805,2.364,25.421,3.039,42.5,6.211
			c16.41,3.047,43.686,10.694,61,17.102c9.643,3.569,27.07,11.792,30.5,14.389C379.087,517.977,378.803,517.979,382.754,515.064
			L382.754,515.064z"/>
		<path id="path162_1_" d="M766.235,389.991c-3.083-3.083-6.346-10.077-6.375-13.665c-0.027-3.329,4.385-7.148,13.5-11.685
			c8.324-4.143,11.729-3.938,15.662,0.938c1.587,1.967,3.156,5.247,3.488,7.29c0.557,3.434,0.254,4.047-4.035,8.156
			c-4.231,4.054-10.832,8.079-17.25,10.52C769.17,392.327,768.299,392.055,766.235,389.991L766.235,389.991z"/>
		<path id="path161_1_" d="M711.338,397.285c-1.65-0.577-3.9-1.396-5-1.818c-1.101-0.423-4.7-1.748-8-2.946
			c-3.301-1.197-7.463-2.809-9.25-3.581l-3.25-1.404V378.6c0-4.914,0.266-9.627,0.59-10.473c0.754-1.964,4.094-1.408,15.41,2.559
			c4.675,1.64,10.975,3.801,14,4.803c3.024,1.001,6.714,2.295,8.199,2.873l2.699,1.053l-3.033,7.794
			c-1.667,4.287-3.377,8.469-3.8,9.294C718.959,398.348,715.328,398.679,711.338,397.285L711.338,397.285z"/>
		<path id="path160_1_" d="M739.412,413.382c-5.827-4.584-7.391-15.126-3.309-22.311c2.985-5.252,6.945-6.875,11.917-4.884
			c3.01,1.205,3.97,2.315,5.25,6.073c2.366,6.945,2.061,15.21-0.716,19.344C749.586,416.025,743.771,416.811,739.412,413.382
			L739.412,413.382z"/>
		<path id="path159_1_" d="M787.338,430.824c-4.016-0.898-21.076-6.633-23.75-7.983c-2-1.01-2.744-2.133-2.729-4.113
			c0.025-3.228,4.958-13.179,7.248-14.623c2.01-1.268,9.285,0.397,19.896,4.553c10.509,4.116,11.269,5.114,10.537,13.837
			c-0.323,3.856-0.865,7.461-1.205,8.011C796.723,431.498,791.15,431.675,787.338,430.824z"/>
		<path id="path158_1_" d="M700.906,441.598c-1.138-1.598-2.067-3.42-2.067-4.05s-0.618-2.36-1.374-3.846
			c-3.247-6.386-3.136-6.784,3.078-10.942c3.188-2.134,9.476-6.014,13.974-8.622c9.643-5.591,10.878-5.337,14.859,3.053
			c4.247,8.948,3.77,10.284-6.206,17.374C707.544,445.67,704.491,446.634,700.906,441.598L700.906,441.598z"/>
		<path id="path157_1_" d="M657.104,512.559c19.074-9.306,50.188-20.592,66.234-24.026c2.199-0.471,6.925-1.576,10.5-2.457
			c8.354-2.059,13.82-3.17,22.5-4.573c3.85-0.622,9.25-1.526,12-2.008c13.034-2.285,27.534-3.19,45.75-2.855
			c10.862,0.2,19.746,0.139,19.741-0.137c-0.07-4.367-4.335-33.637-7.94-54.5c-2.077-12.018-3.348-20.461-5.043-33.5
			c-0.607-4.675-1.508-11.2-2-14.5c-1.898-12.717-3.035-21.646-5.03-39.5c-1.137-10.175-2.491-21.425-3.01-25
			c-9.441-65.103-17.127-93.135-31.388-114.475c-17.345-25.957-39.197-41.35-70.196-49.45c-5.98-1.563-21.218-1.317-28.904,0.466
			c-28.667,6.648-46.272,22.395-53.672,48.004c-2.045,7.079-2.286,9.938-2.183,25.955c0.064,9.9,0.864,27,1.777,38
			c0.914,11,2.324,28.55,3.136,39c0.811,10.45,2.126,26.65,2.922,36c0.797,9.35,1.944,22.85,2.551,30
			c1.312,15.479,2.85,54.474,2.219,56.25c-0.807,2.272-1.952,1.316-5.992-5c-6.982-10.92-16.804-30.638-25.209-50.614
			c-8.354-19.855-11.309-25.519-15.899-30.475c-9.426-10.178-23.748-6.296-30.457,8.256c-1.817,3.942-2.106,6.401-2.065,17.583
			c0.095,26.392,10.063,59.521,29.081,96.655c6.151,12.012,10.584,18.912,19.922,31.018c7.541,9.775,32.117,32.342,35.657,32.741
			C642.526,519.463,649.276,516.377,657.104,512.559L657.104,512.559z"/>
		<path id="path156_1_" d="M594.22,542.621c3.072-0.094,4.583-0.863,7.25-3.689c4.016-4.26,4.473-9.104,1.342-14.24
			c-3.96-6.494-0.357-6.262-92.423-5.961c-81.627,0.266-83.463,0.314-86.082,2.271c-4,2.988-6.92,8.57-6.129,11.719
			c0.963,3.838,5.386,8.654,8.747,9.525C429.192,542.832,576.469,543.164,594.22,542.621L594.22,542.621z"/>
		<path id="path155_1_" d="M596.666,594.992c5.829-4.904,5.74-10.932-0.242-16.453l-2.669-2.463l-81.535-0.037l-81.536-0.037
			l-3.54,3.863c-3.239,3.535-3.496,4.256-3.021,8.467c0.376,3.342,1.247,5.23,3.173,6.887l2.654,2.283h81.867h81.867
			L596.666,594.992z"/>
		<path id="path154_1_" d="M370.769,597.521c9.668-2.771,18.023-18.377,16.701-31.189c-0.321-3.119-1.324-7.52-2.228-9.777
			c-4.279-10.693-26.99-23.113-63.904-34.943c-22.123-7.092-28.732-8.885-44-11.944c-24.674-4.944-36.14-6.162-57.5-6.104
			c-32.094,0.087-43.577,4.922-49.731,20.939c-5.241,13.643-5.059,26.48,0.459,32.238l2.646,2.762l20.563,0.008
			c34.079,0.014,61.02,4.34,108.563,17.436c9.583,2.639,24.868,7.936,40.5,14.035C362.213,598.539,364.97,599.186,370.769,597.521
			L370.769,597.521z"/>
		<path id="path153_1_" d="M665.798,599.92c2.453-0.854,11.963-4.672,21.133-8.484c9.17-3.814,17.181-6.934,17.803-6.934
			s1.912-0.43,2.867-0.957c3.727-2.057,41.97-12.914,56.237-15.967c23.886-5.111,49.188-8.029,69.849-8.057l15.349-0.02l2.847-3.047
			c4.877-5.221,5.196-18.457,0.772-31.922c-2.813-8.561-9.831-15.797-17.816-18.375c-18.55-5.985-62.107-3.062-100.057,6.718
			c-19.792,5.1-35.456,10.547-59.943,20.846c-22.434,9.436-27.558,12.279-34.2,18.979c-6.418,6.475-7.246,8.914-6.644,19.576
			c0.621,10.979,7.859,22.938,16.721,27.625C654.277,601.787,660.416,601.795,665.798,599.92L665.798,599.92z"/>
		<path id="path152_1_" d="M836.306,616.555c0.313-0.506,2.022-0.744,3.8-0.527s5.644,0.623,8.591,0.9l5.358,0.506l-0.706-4.715
			c-0.389-2.594-1.572-8.316-2.63-12.717s-2.13-8.943-2.383-10.096c-0.434-1.979-1.287-2.131-15.185-2.693
			c-19.055-0.771-40.146,2.021-67.313,8.916c-7.426,1.885-17.325,4.359-22,5.498c-16.737,4.082-42.14,12.793-42.765,14.668
			C700.575,617.791,835.382,618.049,836.306,616.555L836.306,616.555z"/>
		<path id="path151_1_" d="M329.256,617.895c3.089-1.184,1.458-2.205-8.668-5.424c-5.638-1.793-12.275-3.912-14.75-4.711
			c-4.606-1.486-8.741-2.629-24.5-6.775c-4.95-1.303-12.15-3.258-16-4.344c-3.851-1.086-12.551-2.908-19.334-4.049
			c-6.784-1.143-12.736-2.324-13.229-2.627c-1.383-0.855-25.692-3.422-32.616-3.443c-4.35-0.014-6.652,0.455-7.778,1.58
			c-1.227,1.227-1.921,1.332-2.981,0.453c-2.067-1.717-14.653-0.951-15.602,0.947c-0.854,1.713-4.96,21.223-5.261,25
			c-0.217,2.715-1.266,2.523,12.301,2.26c1.925-0.037,34.774,0.109,73,0.324c60.19,0.342,72.777,0.561,73.668,1.279
			C327.598,618.441,328.386,618.229,329.256,617.895L329.256,617.895z"/>
		<path id="path2_1_" d="M163.338,645.502l-93-0.5l-4.456-2.5c-2.45-1.375-5.825-4.455-7.5-6.844c-2.839-4.051-3.04-4.928-2.987-13
			c0.066-10.156,0.994-12.695,22.904-62.656c0.724-1.65,6.148-14.025,12.054-27.5c5.906-13.475,16.773-38.125,24.15-54.78
			l13.412-30.28l-0.999-5.72c-0.621-3.558-1.211-67.189-1.561-168.313c-0.619-179.219-0.94-168.658,5.538-182.37
			c3.842-8.131,8.185-13.55,14.906-18.601c6.301-4.734,9.782-6.31,20.038-9.071c7.455-2.007,9.488-2.019,344.637-1.959
			c297.859,0.053,337.819,0.237,343,1.576c20.491,5.297,35.521,21.032,39.689,41.546c1.059,5.21,1.281,38.036,1.142,168.471
			c-0.095,89.1-0.501,164.328-0.903,167.173c-0.717,5.07-0.493,5.707,11.261,32c6.595,14.755,13.33,29.752,14.967,33.327
			s5.332,11.9,8.213,18.5c5.687,13.033,6.963,15.871,15.386,34.217c3.085,6.719,5.609,12.445,5.609,12.725s1.4,3.559,3.112,7.283
			c6.352,13.822,8.159,18.006,11.965,27.686c2.143,5.449,4.179,12.041,4.524,14.645c1.311,9.885-4.999,20.029-14.602,23.475
			c-4.105,1.473-34.914,1.629-351,1.793C412.263,645.922,214.488,645.777,163.338,645.502z"/>
		<path id="path106_1_" d="M819.956,200.28c0.777-1.453,1.223-8.292,1.285-19.75l0.097-17.528l-15.25-0.276
			c-11.863-0.215-15.25,0.008-15.25,1.003c0,0.704,1.625,3.528,3.611,6.276c6.32,8.744,12.211,18.195,15.866,25.453
			c2.944,5.846,3.964,7.044,6,7.044C817.825,202.502,819.224,201.649,819.956,200.28L819.956,200.28z"/>
		<path id="path104_1_" d="M595.975,196.953c0.686-9.725,1.968-16.975,4.908-27.75c1.415-5.187,1.563-6.913,0.627-7.272
			c-0.676-0.259-10.216-0.349-21.2-0.2l-19.972,0.272l-0.271,20.974c-0.149,11.536-0.047,21.559,0.228,22.274
			c0.389,1.011,4.326,1.239,17.771,1.026l17.272-0.274L595.975,196.953z"/>
		<path id="path103_1_" d="M459.838,184.002v-22.5h-20.532c-16.938,0-20.628,0.252-21.083,1.438
			c-0.304,0.792,0.402,4.954,1.569,9.25c2.362,8.702,5.325,28.124,4.585,30.062c-0.262,0.688-0.218,1.925,0.099,2.75
			c0.481,1.254,3.431,1.5,17.969,1.5h17.394V184.002z"/>
		<path id="path102_1_" d="M531.607,184.146l-0.269-22.143l-21.77-0.27l-21.77-0.27l0.27,22.27l0.27,22.27l18,0.5
			c9.899,0.275,19.695,0.339,21.769,0.143l3.769-0.357L531.607,184.146z"/>
		<path id="path101_1_" d="M598.44,281.942c0.285-1.133,0.046-10.809-0.534-21.5c-0.58-10.692-1.058-20.002-1.062-20.689
			c0-0.955-4.376-1.25-18.506-1.25h-18.5v22.333c0,12.283,0.234,22.568,0.522,22.856c0.287,0.287,8.855,0.475,19.04,0.417
			C597.222,284.006,597.939,283.925,598.44,281.942z"/>
		<path id="path100_1_" d="M531.338,261.502v-22.5l-20.93-0.271c-12.542-0.162-21.317,0.117-21.897,0.697
			c-0.978,0.978-1.01,42.72-0.033,44.3c0.276,0.447,10.033,0.692,21.681,0.543l21.18-0.27V261.502z"/>
		<path id="path110_1_" fill="#B8D8CB" d="M367.457,509.533c-28.511-16.928-101.666-33.42-148.235-33.42
			c-25.426,0-27.112-0.309-27.112-4.959c0-6.63,16.257-131.9,22.597-174.12c6.083-40.514,15.315-78.586,22.447-92.565
			c6.778-13.287,27.01-34.625,41.681-43.959c34.175-21.745,75.922-18.122,99.472,8.632c12.645,14.364,16.247,27.107,15.769,55.763
			c-0.335,20.028-7.021,120.338-11.797,176.988c-0.855,10.146-0.41,17.172,1.149,18.136c3.754,2.32,15.975-18.554,29.053-49.622
			c16.188-38.458,26.519-48.137,38.104-35.7c21.47,23.045-7.847,115.172-51.373,161.44c-10.225,10.869-19.313,19.657-20.197,19.528
			S372.93,512.781,367.457,509.533L367.457,509.533z"/>
		<path id="path111_1_" fill="#B8D8CB" d="M617.913,495.561c-16.487-17.173-22.326-25.542-32.539-46.635
			c-15.27-31.537-21.884-51.119-25.227-74.689c-2.959-20.865-1.48-30.823,5.745-38.691c12.237-13.325,24.895-4.395,37.893,26.737
			c9.725,23.29,22.215,47.529,28.196,54.719l5.173,6.219l0.083-23.855c0.045-13.121-2.089-50.056-4.744-82.078
			c-8.414-101.512-8.59-107.039-3.915-123.259c3.314-11.499,6.892-17.177,17.039-27.044c25.926-25.209,58.159-27.567,95.044-6.953
			c14.269,7.975,36.368,32.143,44.394,48.548c9.143,18.691,17.543,54.086,23.786,100.229c2.961,21.888,9.339,66.967,14.174,100.176
			c4.834,33.21,8.185,61.958,7.444,63.885c-1.043,2.719-7.651,3.53-29.466,3.62c-42.739,0.176-90.727,11.206-137.057,31.504
			c-10.668,4.673-20.866,8.498-22.664,8.498C639.476,516.49,628.964,507.072,617.913,495.561L617.913,495.561z"/>
		<path id="path99_1_" d="M459.509,283.164c0.696-0.696,0.622-42.378-0.078-43.51c-0.925-1.496-33.886-1.601-36.659-0.117
			c-1.819,0.974-1.935,2.3-1.935,22.333c0,11.714,0.338,21.655,0.75,22.092C422.289,284.706,458.735,283.938,459.509,283.164
			L459.509,283.164z"/>
		<path id="path98_1_" d="M529.128,346.752c0.422-11.086,1.095-16.449,2.71-21.592c1.182-3.763,1.981-7.01,1.775-7.216
			c-0.605-0.605-48.853-0.699-49.456-0.096c-0.303,0.303-0.02,2.037,0.629,3.853c2.213,6.191,4.049,19.285,4.05,28.884
			c0.001,5.271,0.302,9.884,0.668,10.25c0.367,0.367,9.306,0.667,19.864,0.667h19.197L529.128,346.752z"/>
		<path id="path97_1_" d="M171.838,396.417l0.5-25.585l3.183-3.622c3.499-3.983,3.923-5.827,5.339-23.207
			c0.493-6.05,1.193-12.728,1.557-14.84c0.607-3.524,0.33-4.182-3.377-8c-4.803-4.948-6.693-10.891-5.744-18.053
			c1.286-9.692,5.507-15.61,11.845-16.607c3.494-0.55,3.071,0.798,6.744-21.5c0.634-3.85,2.275-11.137,3.647-16.193
			s2.201-9.669,1.842-10.25c-0.359-0.582-2.331-1.057-4.383-1.057c-5.116,0-12.309-3.812-14.151-7.5
			c-1.275-2.554-1.445-9.019-1.144-43.5c0.379-43.208,0.483-44.145,5.493-49.104c3.459-3.425,8.538-3.879,43.435-3.889
			c23.871-0.006,27.605,0.203,29.848,1.672c2.006,1.314,2.958,1.433,4.38,0.544c5.782-3.611,26.509-13.474,32.017-15.235
			c22.626-7.237,46.826-7.211,67.471,0.072c7.813,2.756,20.801,9.523,26.227,13.664c5.044,3.851,5.374,3.889,10.817,1.254
			c4.123-1.996,5.547-2.018,114.735-1.75l110.56,0.271l2.395,2.25c2.78,2.612,4.065,2.8,5.698,0.832
			c1.216-1.464,15.883-9.979,22.068-12.81c5.582-2.556,14.98-5.699,21.812-7.296c7.001-1.637,29.481-2.015,35.188-0.592
			c1.925,0.48,6.199,1.458,9.5,2.175c8.037,1.744,22.307,7.589,32.441,13.289c4.551,2.559,8.606,4.653,9.013,4.653
			s2.156-0.708,3.889-1.572c2.717-1.355,7.733-1.528,36.404-1.25c31.424,0.304,33.399,0.432,35.918,2.322
			c6.414,4.813,6.303,4.002,6.653,48.617c0.366,46.591,0.375,46.532-7.031,49.894c-2.358,1.07-5.989,1.956-8.069,1.968
			c-4.897,0.028-5.475,1.672-2.906,8.284c2.338,6.02,3.533,11.562,5.226,24.238c2.066,15.475,1.745,14.879,9.963,18.48
			c4.314,1.891,7.329,16.433,5.107,24.639c-1.352,4.994-4.505,9.201-7.851,10.473c-2.139,0.813-2.397,1.387-1.881,4.176
			c1.511,8.162,2.512,15.964,3.152,24.551c0.667,8.957,0.844,9.49,4.551,13.773c5.558,6.422,6.269,10.142,5.62,29.408
			c-0.565,16.812,0.093,25.193,2.143,27.242c0.859,0.859,1.916,0.411,4.24-1.799c1.703-1.619,3.673-4.068,4.379-5.443
			c1.932-3.764,2.626-296.558,0.719-302.868c-1.787-5.913-9.244-13.284-15.644-15.465c-4.528-1.543-29.563-1.667-336.226-1.667
			H177.816l-4.508,2.119c-5.049,2.373-10.719,7.621-13.273,12.285c-1.57,2.866-1.716,14.154-1.959,151.693
			c-0.226,127.212-0.058,149.086,1.171,152c2.024,4.806,7.451,10.066,10.007,9.701C171.289,422.009,171.35,421.401,171.838,396.417
			L171.838,396.417z"/>
		<path id="path96_1_" d="M547.042,436.965c0.483-0.484-2.938-9.117-9.698-24.463l-2.423-5.5H507.26H479.6l-0.935,2.5
			c-0.515,1.375-3.201,7.765-5.972,14.199s-4.745,12.172-4.388,12.75C468.978,437.539,545.967,438.041,547.042,436.965
			L547.042,436.965z"/>
		<path id="path95_1_" d="M241.082,387.473c-4.494-2.766-8.863-6.016-9.708-7.222c-3.256-4.649-1.043-15.061,3.888-18.291
			c2.068-1.355,3.347-1.506,6.339-0.746c5.315,1.35,17.196,9.319,17.872,11.99c0.816,3.224-2.4,11.961-5.85,15.889
			c-1.646,1.875-3.303,3.409-3.681,3.409C249.564,392.502,245.577,390.24,241.082,387.473L241.082,387.473z"/>
		<path id="path94_1_" d="M300.433,396.252c-2.703-4.194-4.737-10.546-4.415-13.789c0.3-3.028,0.824-3.432,8.434-6.487
			c12.621-5.069,22.758-8.398,26.483-8.699l3.403-0.274v10.451v10.45l-6.5,2.386c-3.575,1.313-9.875,3.699-14,5.305
			C304.834,399.098,302.347,399.22,300.433,396.252L300.433,396.252z"/>
		<path id="path93_1_" d="M270.079,414.177c-4.317-2.398-5.74-5.679-5.74-13.244c-0.001-8.703,2.923-14.025,8.266-15.039
			c7.852-1.491,12.527,3.57,12.527,13.563C285.132,411.849,278.161,418.666,270.079,414.177L270.079,414.177z"/>
		<path id="path92_1_" d="M223.859,428.542c-2.64-5.174-2.737-13.324-0.189-15.871c1.953-1.953,19.921-8.169,23.614-8.169
			c2.802,0,5.88,3.271,8.421,8.949c2.411,5.388,1.772,7.007-4.135,10.468c-4.15,2.432-21.566,8.583-24.302,8.583
			C226.504,432.502,224.969,430.72,223.859,428.542L223.859,428.542z"/>
		<path id="path91_1_" d="M308.082,441.569c-2.891-1.594-6.574-3.948-8.188-5.231c-1.612-1.284-4.967-3.836-7.454-5.671
			c-5.963-4.398-6.373-6.112-3.041-12.698c5.19-10.26,6.685-10.828,14.938-5.678c16.469,10.276,19.5,12.672,19.5,15.42
			c0,3.731-7.757,16.842-9.925,16.773C313.597,444.474,310.973,443.163,308.082,441.569L308.082,441.569z"/>
		<path id="path89_1_" d="M766.235,389.991c-3.083-3.083-6.346-10.077-6.375-13.665c-0.027-3.329,4.385-7.148,13.5-11.685
			c8.324-4.143,11.729-3.938,15.662,0.938c1.587,1.967,3.156,5.247,3.488,7.29c0.557,3.434,0.254,4.047-4.035,8.156
			c-4.231,4.054-10.832,8.079-17.25,10.52C769.17,392.327,768.299,392.055,766.235,389.991L766.235,389.991z"/>
		<path id="path88_1_" d="M711.338,397.285c-1.65-0.577-3.9-1.396-5-1.818c-1.101-0.423-4.7-1.748-8-2.946
			c-3.301-1.197-7.463-2.809-9.25-3.581l-3.25-1.404V378.6c0-4.914,0.266-9.627,0.59-10.473c0.754-1.964,4.094-1.408,15.41,2.559
			c4.675,1.64,10.975,3.801,14,4.803c3.024,1.001,6.714,2.295,8.199,2.873l2.699,1.053l-3.033,7.794
			c-1.667,4.287-3.377,8.469-3.8,9.294C718.959,398.348,715.328,398.679,711.338,397.285L711.338,397.285z"/>
		<path id="path87_1_" d="M739.412,413.382c-5.827-4.584-7.391-15.126-3.309-22.311c2.985-5.252,6.945-6.875,11.917-4.884
			c3.01,1.205,3.97,2.315,5.25,6.073c2.366,6.945,2.061,15.21-0.716,19.344C749.586,416.025,743.771,416.811,739.412,413.382
			L739.412,413.382z"/>
		<path id="path86_1_" d="M787.338,430.824c-4.016-0.898-21.076-6.633-23.75-7.983c-2-1.01-2.744-2.133-2.729-4.113
			c0.025-3.228,4.958-13.179,7.248-14.623c2.01-1.268,9.285,0.397,19.896,4.553c10.509,4.116,11.269,5.114,10.537,13.837
			c-0.323,3.856-0.865,7.461-1.205,8.011C796.723,431.498,791.15,431.675,787.338,430.824z"/>
		<path id="path85_1_" d="M700.906,441.598c-1.138-1.598-2.067-3.42-2.067-4.05s-0.618-2.36-1.374-3.846
			c-3.247-6.386-3.136-6.784,3.078-10.942c3.188-2.134,9.476-6.014,13.974-8.622c9.643-5.591,10.878-5.337,14.859,3.053
			c4.247,8.948,3.77,10.284-6.206,17.374C707.544,445.67,704.491,446.634,700.906,441.598L700.906,441.598z"/>
		<path id="path83_1_" d="M594.22,542.621c3.072-0.094,4.583-0.863,7.25-3.689c4.016-4.26,4.473-9.104,1.342-14.24
			c-3.96-6.494-0.357-6.262-92.423-5.961c-81.627,0.266-83.463,0.314-86.082,2.271c-4,2.988-6.92,8.57-6.129,11.719
			c0.963,3.838,5.386,8.654,8.747,9.525C429.192,542.832,576.469,543.164,594.22,542.621L594.22,542.621z"/>
		<path id="path82_1_" d="M596.666,594.992c5.829-4.904,5.74-10.932-0.242-16.453l-2.669-2.463l-81.535-0.037l-81.536-0.037
			l-3.54,3.863c-3.239,3.535-3.496,4.256-3.021,8.467c0.376,3.342,1.247,5.23,3.173,6.887l2.654,2.283h81.867h81.867
			L596.666,594.992z"/>
		<path id="path80_1_" d="M665.798,599.92c2.453-0.854,11.963-4.672,21.133-8.484c9.17-3.814,17.181-6.934,17.803-6.934
			s1.912-0.43,2.867-0.957c3.727-2.057,41.97-12.914,56.237-15.967c23.886-5.111,49.188-8.029,69.849-8.057l15.349-0.02l2.847-3.047
			c4.877-5.221,5.196-18.457,0.772-31.922c-2.813-8.561-9.831-15.797-17.816-18.375c-18.55-5.985-62.107-3.062-100.057,6.718
			c-19.792,5.1-35.456,10.547-59.943,20.846c-22.434,9.436-27.559,12.279-34.2,18.979c-6.418,6.475-7.246,8.914-6.644,19.576
			c0.621,10.979,7.859,22.938,16.721,27.625C654.277,601.787,660.416,601.795,665.798,599.92L665.798,599.92z"/>
		<path id="path79_1_" d="M836.306,616.555c0.313-0.506,2.022-0.744,3.8-0.527s5.644,0.623,8.59,0.9l5.359,0.506l-0.706-4.715
			c-0.389-2.594-1.572-8.316-2.63-12.717s-2.13-8.943-2.383-10.096c-0.434-1.979-1.287-2.131-15.185-2.693
			c-19.056-0.771-40.146,2.021-67.313,8.916c-7.426,1.885-17.325,4.359-22,5.498c-16.737,4.082-42.14,12.793-42.765,14.668
			C700.574,617.791,835.382,618.049,836.306,616.555z"/>
		<path id="path112_1_" fill="#00A7FF" d="M423.587,185.546c-1.651-10.236-2.298-19.749-1.438-21.141s9.332-2.531,18.827-2.531
			h17.264v21.141v21.142h-15.825H426.59L423.587,185.546z"/>
		<path id="path113_1_" fill="#00A7FF" d="M505.209,204.857l-13.969-0.929l-1.555-12.944c-0.855-7.119-1.564-16.626-1.577-21.127
			l-0.021-8.184l20.52,0.722l20.52,0.723v21.141C529.126,208.16,530.973,206.57,505.209,204.857L505.209,204.857z"/>
		<path id="path114_1_" fill="#00A7FF" d="M560.216,187.826c0-24.146,1.586-25.952,22.784-25.952h17.634l-1.709,8.083
			c-0.94,4.446-2.355,13.959-3.146,21.141l-1.438,13.058h-17.063h-17.063V187.826z"/>
		<path id="path115_1_" fill="#00A7FF" d="M716.754,611.354c22.99-8.535,80.763-21.08,103.761-22.531
			c26.961-1.703,25.896-2.35,30.429,18.49l1.758,8.084l-72.948-0.176C712.319,615.059,707.557,614.768,716.754,611.354
			L716.754,611.354z"/>
		<path id="path116_1_" fill="#00A7FF" d="M648.895,596.592c-12.145-8.506-16.816-29.322-9.065-40.391
			c7.25-10.35,53.784-30.738,94.732-41.506c52.91-13.913,97.525-13.499,110.729,1.027c7.823,8.607,11.59,27.205,7.381,36.443
			c-2.479,5.441-4.256,6.025-18.344,6.031c-40.874,0.02-96.104,11.834-145.378,31.1c-15.721,6.146-29.917,11.176-31.548,11.176
			S651.943,598.727,648.895,596.592L648.895,596.592z"/>
		<path id="path117_1_" fill="#B8D8CB" d="M421.958,536.977c-2.414-2.91-2.499-5.252-0.358-9.949l2.8-6.145h87.159h87.159l2.8,6.145
			c2.141,4.697,2.056,7.039-0.358,9.949C596.405,542.705,426.713,542.705,421.958,536.977L421.958,536.977z"/>
		<path id="path118_1_" fill="#B8D8CB" d="M426.908,590.365c-2.039-3.811-1.983-6.055,0.217-8.705
			c2.468-2.975,16.859-3.572,85.935-3.572h82.97l1.524,6.076c0.839,3.344,0.794,7.26-0.099,8.707
			c-1.089,1.762-29.024,2.627-84.712,2.627C431.344,595.498,429.601,595.395,426.908,590.365L426.908,590.365z"/>
		<path id="path119_1_" fill="#00A7FF" d="M171.708,604.826c0.959-5.814,2.731-11.801,3.939-13.303
			c6.843-8.506,71.661-0.027,124.089,16.23l23.629,7.328l-76.7,0.158l-76.701,0.156L171.708,604.826z"/>
		<path id="path120_1_" fill="#00A7FF" d="M361.917,596.137c-2.053-0.617-14.029-4.9-26.616-9.518
			c-47.425-17.398-102.271-28.428-141.363-28.428c-18.796,0-21.158-0.531-23.728-5.334c-6.534-12.209,1.897-35.936,15.118-42.542
			c11.4-5.697,55.845-5.92,84.909-0.426c44.23,8.362,96.454,28.485,109.09,42.034C393.822,567.467,380.348,601.684,361.917,596.137
			L361.917,596.137z"/>
		<path id="path121_1_" fill="#00A7FF" d="M422.54,261.591l0.723-20.52l18.032-0.731l18.032-0.73v21.25v21.25h-18.755h-18.755
			L422.54,261.591z"/>
		<path id="path122_1_" fill="#00A7FF" d="M489.174,260.969v-21.141h19.897h19.897v21.141v21.142h-19.897h-19.897V260.969z"/>
		<path id="path123_1_" fill="#00A7FF" d="M561.303,260.969v-21.141h17.41h17.411v21.141v21.142h-17.411h-17.41V260.969z"/>
		<path id="path124_1_" fill="#00A7FF" d="M489.174,347.088c0-6.669-0.7-15.622-1.555-19.897l-1.555-7.772h22.648h22.648
			l-1.33,11.814c-0.731,6.497-1.88,15.451-2.553,19.897l-1.223,8.083h-18.541h-18.541V347.088z"/>
		<path id="path125_1_" fill="#00A7FF" d="M474.286,423.79c2.717-6.891,4.938-13.047,4.938-13.68c0-0.634,12.352-1.152,27.448-1.152
			h27.447l4.886,11.399c2.688,6.269,4.887,12.425,4.887,13.68c0,1.281-16.329,2.28-37.272,2.28h-37.271L474.286,423.79z"/>
		<path id="path126_1_" fill="#B8D8CB" d="M163.578,416.488c-4.029-5.691-4.354-17.242-4.354-155.077V112.482l8.483-8.483
			l8.483-8.483l334.589,0.648l334.589,0.648l7.624,7.305l7.625,7.305l-0.248,146.902c-0.136,80.796-1.007,149.617-1.934,152.936
			c-0.928,3.318-3.055,6.489-4.727,7.047c-2.249,0.749-3.041-4.952-3.041-21.907c0-18.015-0.999-24.58-4.671-30.676
			c-2.57-4.265-5.421-14.725-6.336-23.242c-1.456-13.565-0.987-16.401,3.777-22.847c7.154-9.676,5.453-26.394-3.438-33.781
			c-4.433-3.683-6.723-9.219-8.753-21.155c-1.512-8.892-3.446-18.527-4.299-21.413c-1.289-4.364-0.256-5.504,6.151-6.786
			c11.722-2.344,13.236-9.407,12.029-56.083c-0.948-36.646-1.537-41.109-5.842-44.27c-3.713-2.727-13.558-3.415-43.896-3.065
			c-32.058,0.37-40.194-0.26-45.128-3.493c-12.65-8.289-35.836-14.123-56.125-14.123c-22.137,0-37.49,4.181-55.41,15.088
			c-7.049,4.29-12.337,6.131-13.271,4.619c-1.016-1.644-42.287-2.397-119.271-2.177l-117.718,0.337l-10.781-6.171
			c-29.8-17.055-64.744-17.635-98.771-1.641c-16.271,7.648-16.936,7.741-53.8,7.455c-29.095-0.226-38.419,0.509-42.283,3.331
			c-4.592,3.354-5.014,7.034-5.734,49.978l-0.776,46.357l10.146,3.986c7.229,2.84,9.795,5.124,8.922,7.944
			c-0.673,2.177-2.777,11.436-4.677,20.574c-2.548,12.26-5.193,18.128-10.095,22.384c-9.409,8.174-11.36,22.444-4.362,31.91
			c4.577,6.19,5.095,9.312,3.786,22.849c-0.833,8.623-3.061,18.157-4.95,21.188c-1.889,3.029-3.533,11.983-3.652,19.897
			c-0.12,7.914-0.96,19.985-1.865,26.825l-1.647,12.436L163.578,416.488z"/>
		<path id="path127_1_" fill="#00A7FF" d="M805.091,183.722c-5.625-8.971-10.227-17.365-10.227-18.654
			c0-2.716,6.064-2.996,17.1-0.789l7.772,1.554v17.1c0,9.405-0.994,17.1-2.209,17.1
			C816.312,200.032,810.716,192.692,805.091,183.722L805.091,183.722z"/>
		<path id="path128_1_" fill="#00A7FF" d="M199.867,200.861c-0.912-0.912-1.658-9.306-1.658-18.654v-16.996h13.626h13.626
			l-11.325,18.654C202.058,203.76,202.381,203.375,199.867,200.861z"/>
	</g>
</g>
</svg>
